<?xml version="1.0" standalone="no"?><!DOCTYPE svg PUBLIC "-//W3C//DTD SVG 1.1//EN" "http://www.w3.org/Graphics/SVG/1.1/DTD/svg11.dtd"><svg t="1664113962209" class="icon" viewBox="0 0 1024 1024" version="1.1" xmlns="http://www.w3.org/2000/svg" p-id="2553" xmlns:xlink="http://www.w3.org/1999/xlink" width="16" height="16"><path d="M426.666667 426.666667H85.546667A85.418667 85.418667 0 0 0 0 512c0 47.445333 38.314667 85.333333 85.546667 85.333333H426.666667v341.12c0 47.274667 38.186667 85.546667 85.333333 85.546667 47.445333 0 85.333333-38.314667 85.333333-85.546667V597.333333h341.12A85.418667 85.418667 0 0 0 1024 512c0-47.445333-38.314667-85.333333-85.546667-85.333333H597.333333V85.546667A85.418667 85.418667 0 0 0 512 0c-47.445333 0-85.333333 38.314667-85.333333 85.546667V426.666667z" p-id="2554" fill="#252422"></path></svg>