<?xml version="1.0" standalone="no"?><!DOCTYPE svg PUBLIC "-//W3C//DTD SVG 1.1//EN" "http://www.w3.org/Graphics/SVG/1.1/DTD/svg11.dtd"><svg t="1663771391726" class="icon" viewBox="0 0 1024 1024" version="1.1" xmlns="http://www.w3.org/2000/svg" p-id="911" width="16" height="16" xmlns:xlink="http://www.w3.org/1999/xlink"><path d="M165.3 900.2c-11.4 0-22.8-4.4-31.5-13.1-17.4-17.4-17.4-45.7 0-63.1l260.3-260.3c17.4-17.4 45.7-17.4 63.1 0s17.4 45.7 0 63.1L196.8 887.1c-8.7 8.8-20.1 13.1-31.5 13.1zM594.1 471.4c-11.4 0-22.8-4.4-31.5-13.1-17.4-17.4-17.4-45.7 0-63.1l260.9-260.9c17.4-17.4 45.7-17.4 63.1 0s17.4 45.7 0 63.1L625.7 458.3c-8.7 8.7-20.2 13.1-31.6 13.1z" fill="#333333" p-id="912"></path><path d="M878.1 489.5c-24.6 0-44.6-20-44.6-44.6V221.5c0-18.8-15.3-34.1-34.1-34.1H576c-24.6 0-44.6-20-44.6-44.6s20-44.6 44.6-44.6h223.4c68 0 123.3 55.3 123.3 123.3v223.4c0 24.6-20 44.6-44.6 44.6zM444.6 923.7H221.3c-68 0-123.3-55.3-123.3-123.3V577c0-24.6 20-44.6 44.6-44.6s44.6 20 44.6 44.6v223.3c0 18.8 15.3 34.1 34.1 34.1h223.3c24.6 0 44.6 20 44.6 44.6 0.1 24.7-19.9 44.7-44.6 44.7z" fill="#333333" p-id="913"></path></svg>