<?xml version="1.0" standalone="no"?><!DOCTYPE svg PUBLIC "-//W3C//DTD SVG 1.1//EN" "http://www.w3.org/Graphics/SVG/1.1/DTD/svg11.dtd"><svg t="1663767226136" class="icon" viewBox="0 0 1024 1024" version="1.1" xmlns="http://www.w3.org/2000/svg" p-id="1558" xmlns:xlink="http://www.w3.org/1999/xlink" width="32" height="32"><path d="M929.70745 299.43679 93.792153 299.43679c-16.575514 0-30.013571-13.100366-30.013571-29.67588s13.438057-29.67588 30.013571-29.67588l835.916321 0c16.575514 0 30.013571 13.100366 30.013571 29.67588S946.283987 299.43679 929.70745 299.43679z" p-id="1559"></path><path d="M775.639492 546.053584 93.792153 546.053584c-16.575514 0-30.013571-13.612019-30.013571-30.187533s13.438057-30.187533 30.013571-30.187533L775.639492 485.678518c16.575514 0 30.013571 13.612019 30.013571 30.187533S792.215006 546.053584 775.639492 546.053584z" p-id="1560"></path><path d="M929.70745 791.647071 93.792153 791.647071c-16.575514 0-30.013571-13.100366-30.013571-29.67588s13.438057-29.67588 30.013571-29.67588l835.916321 0c16.575514 0 30.013571 13.100366 30.013571 29.67588S946.283987 791.647071 929.70745 791.647071z" p-id="1561"></path></svg>