<?xml version="1.0" standalone="no"?><!DOCTYPE svg PUBLIC "-//W3C//DTD SVG 1.1//EN" "http://www.w3.org/Graphics/SVG/1.1/DTD/svg11.dtd"><svg t="1663767169860" class="icon" viewBox="0 0 1024 1024" version="1.1" xmlns="http://www.w3.org/2000/svg" p-id="864" width="32" height="32" xmlns:xlink="http://www.w3.org/1999/xlink"><path d="M807.6288 550.8096H224.2048c-17.5104 0-30.72-16.7936-30.72-38.7072s13.3632-38.7072 30.72-38.7072h583.424c17.5104 0 30.72 16.7936 30.72 38.7072s-14.0288 38.7072-30.72 38.7072z" p-id="865" fill="#252422"></path><path d="M807.5776 554.0352H224.2048c-19.456 0-34.0992-18.0224-34.0992-41.9328s14.6432-41.9328 34.0992-41.9328h583.3728c19.456 0 34.0992 18.0224 34.0992 41.9328 0 23.1424-15.2576 41.9328-34.0992 41.9328zM224.2048 476.6208c-15.7696 0-27.648 15.36-27.648 35.4816s11.8784 35.4816 27.648 35.4816h583.3728c15.36 0 27.648-15.9232 27.648-35.4816s-11.8784-35.4816-27.648-35.4816z" p-id="866" fill="#252422"></path></svg>