<?xml version="1.0" standalone="no"?><!DOCTYPE svg PUBLIC "-//W3C//DTD SVG 1.1//EN" "http://www.w3.org/Graphics/SVG/1.1/DTD/svg11.dtd"><svg t="1663771600408" class="icon" viewBox="0 0 1024 1024" version="1.1" xmlns="http://www.w3.org/2000/svg" p-id="4531" xmlns:xlink="http://www.w3.org/1999/xlink" width="16" height="16"><path d="M164.1 905.8c-11.4 0-22.8-4.4-31.6-13.1-17.4-17.4-17.4-45.7 0-63.1L393 569.2c17.4-17.4 45.7-17.4 63.1 0s17.4 45.7 0 63.1L195.7 892.7c-8.7 8.8-20.2 13.1-31.6 13.1zM601.8 466.6c-11.4 0-22.8-4.4-31.6-13.1-17.4-17.4-17.4-45.7 0-63.1l261-261c17.4-17.4 45.7-17.4 63.1 0s17.4 45.7 0 63.1l-261 261c-8.7 8.8-20.1 13.1-31.5 13.1z" fill="#333333" p-id="4532"></path><path d="M880.9 489.7H657.5c-68 0-123.4-55.3-123.4-123.4V142.9c0-24.7 20-44.6 44.6-44.6 24.7 0 44.6 20 44.6 44.6v223.5c0 18.8 15.3 34.1 34.1 34.1h223.5c24.7 0 44.6 20 44.6 44.6 0.1 24.6-19.9 44.6-44.6 44.6zM447.3 924.1c-24.7 0-44.6-20-44.6-44.6V656c0-18.8-15.3-34.1-34.1-34.1H145.1c-24.7 0-44.6-20-44.6-44.6 0-24.7 20-44.6 44.6-44.6h223.5c68 0 123.4 55.3 123.4 123.4v223.5c-0.1 24.5-20.1 44.5-44.7 44.5z" fill="#333333" p-id="4533"></path></svg>